<svg width="64" height="64" viewBox="0 0 64 64" fill="none" xmlns="http://www.w3.org/2000/svg">
<path d="M0 32C0 14.3269 14.3269 0 32 0C49.6731 0 64 14.3269 64 32C64 49.6731 49.6731 64 32 64C14.3269 64 0 49.6731 0 32Z" fill="url(#paint0_linear_1_101)"/>
<path d="M32 40V22.6667" stroke="#AD46FF" stroke-width="2.66667" stroke-linecap="round" stroke-linejoin="round"/>
<path d="M36 33.3333C34.8464 32.9961 33.8331 32.2942 33.112 31.3327C32.3909 30.3712 32.0007 29.2019 32 28C31.9993 29.2019 31.6091 30.3712 30.888 31.3327C30.1669 32.2942 29.1536 32.9961 28 33.3333" stroke="#AD46FF" stroke-width="2.66667" stroke-linecap="round" stroke-linejoin="round"/>
<path d="M39.464 24.6667C39.7708 24.1353 39.9513 23.5405 39.9914 22.9283C40.0316 22.316 39.9303 21.7027 39.6956 21.1359C39.4608 20.569 39.0987 20.0637 38.6374 19.6592C38.1761 19.2546 37.6279 18.9616 37.0353 18.8028C36.4426 18.644 35.8214 18.6237 35.2196 18.7434C34.6178 18.8631 34.0517 19.1196 33.5649 19.4931C33.0781 19.8667 32.6838 20.3472 32.4125 20.8975C32.1411 21.4478 32 22.0531 32 22.6667C32 22.0531 31.8589 21.4478 31.5875 20.8975C31.3162 20.3472 30.9219 19.8667 30.4351 19.4931C29.9483 19.1196 29.3822 18.8631 28.7804 18.7434C28.1786 18.6237 27.5574 18.644 26.9647 18.8028C26.3721 18.9616 25.8239 19.2546 25.3626 19.6592C24.9013 20.0637 24.5392 20.569 24.3044 21.1359C24.0697 21.7027 23.9684 22.316 24.0086 22.9283C24.0487 23.5405 24.2292 24.1353 24.536 24.6667" stroke="#AD46FF" stroke-width="2.66667" stroke-linecap="round" stroke-linejoin="round"/>
<path d="M39.996 22.8333C40.7798 23.0348 41.5074 23.412 42.1237 23.9364C42.7401 24.4607 43.229 25.1185 43.5536 25.8598C43.8781 26.6011 44.0297 27.4065 43.9968 28.2151C43.964 29.0236 43.7476 29.8141 43.364 30.5266" stroke="#AD46FF" stroke-width="2.66667" stroke-linecap="round" stroke-linejoin="round"/>
<path d="M40 40C41.174 40 42.3152 39.6126 43.2466 38.8979C44.178 38.1831 44.8475 37.1811 45.1514 36.0471C45.4552 34.9131 45.3764 33.7105 44.9272 32.6259C44.4779 31.5412 43.6834 30.6351 42.6667 30.048" stroke="#AD46FF" stroke-width="2.66667" stroke-linecap="round" stroke-linejoin="round"/>
<path d="M42.6226 39.3106C42.7161 40.0336 42.6603 40.7681 42.4588 41.4686C42.2573 42.1692 41.9142 42.8211 41.4509 43.3839C40.9876 43.9467 40.4138 44.4086 39.765 44.741C39.1162 45.0733 38.4061 45.2692 37.6787 45.3164C36.9512 45.3636 36.2218 45.2612 35.5355 45.0154C34.8491 44.7697 34.2205 44.3858 33.6883 43.8876C33.1561 43.3894 32.7317 42.7874 32.4414 42.1187C32.151 41.45 32.0008 40.7289 32 39.9999C31.9992 40.7289 31.849 41.45 31.5586 42.1187C31.2682 42.7874 30.8438 43.3894 30.3117 43.8876C29.7795 44.3858 29.1508 44.7697 28.4645 45.0154C27.7782 45.2612 27.0487 45.3636 26.3213 45.3164C25.5938 45.2692 24.8837 45.0733 24.2349 44.741C23.5861 44.4086 23.0123 43.9467 22.549 43.3839C22.0857 42.8211 21.7427 42.1692 21.5412 41.4686C21.3396 40.7681 21.2839 40.0336 21.3773 39.3106" stroke="#AD46FF" stroke-width="2.66667" stroke-linecap="round" stroke-linejoin="round"/>
<path d="M24 40C22.826 40 21.6848 39.6126 20.7535 38.8979C19.8221 38.1831 19.1525 37.1811 18.8487 36.0471C18.5448 34.9131 18.6236 33.7105 19.0729 32.6259C19.5221 31.5412 20.3167 30.6351 21.3334 30.048" stroke="#AD46FF" stroke-width="2.66667" stroke-linecap="round" stroke-linejoin="round"/>
<path d="M24.004 22.8333C23.2203 23.0348 22.4927 23.412 21.8763 23.9364C21.2599 24.4607 20.771 25.1185 20.4464 25.8598C20.1219 26.6011 19.9703 27.4065 20.0032 28.2151C20.036 29.0236 20.2524 29.8141 20.636 30.5266" stroke="#AD46FF" stroke-width="2.66667" stroke-linecap="round" stroke-linejoin="round"/>
<defs>
<linearGradient id="paint0_linear_1_101" x1="0" y1="0" x2="64" y2="64" gradientUnits="userSpaceOnUse">
<stop stop-color="#F3E8FF"/>
<stop offset="1" stop-color="#FCE7F3"/>
</linearGradient>
</defs>
</svg>
